<svg xmlns="http://www.w3.org/2000/svg" viewBox="0 0 600 250" width="100%" height="100%">
    <rect width="600" height="250" fill="#0f172a" rx="12"/>
    <style>
      .wire { stroke: #38bdf8; stroke-width: 3; fill: none; }
      .comp { stroke: #f8fafc; stroke-width: 2.5; fill: none; }
      .txt { fill: #f8fafc; font-family: 'JetBrains Mono', monospace; font-size: 14px; }
      .hilite { fill: #38bdf8; font-weight: bold; }
    </style>
    <!-- Op-Amp Triangle -->
    <polygon points="300,70 300,190 420,130" fill="#1e293b" stroke="#38bdf8" stroke-width="3"/>
    <text x="315" y="105" class="txt" font-size="20">−</text>
    <text x="315" y="165" class="txt" font-size="18">+</text>
    <text x="350" y="135" class="txt" font-weight="bold">OP-AMP</text>
    
    <!-- Non-inverting to ground -->
    <path d="M 300 160 L 250 160 L 250 190" class="wire"/>
    <!-- Ground symbol -->
    <line x1="235" y1="190" x2="265" y2="190" stroke="#f8fafc" stroke-width="2.5"/>
    <line x1="240" y1="196" x2="260" y2="196" stroke="#f8fafc" stroke-width="2"/>
    <line x1="245" y1="202" x2="255" y2="202" stroke="#f8fafc" stroke-width="1.5"/>

    <!-- Inverting input & R_in -->
    <path d="M 80 100 L 130 100" class="wire"/>
    <circle cx="75" cy="100" r="4" fill="#38bdf8"/>
    <text x="65" y="90" class="txt hilite">V_in</text>
    <!-- R_in box -->
    <rect x="130" y="88" width="60" height="24" fill="#1e293b" stroke="#f8fafc" stroke-width="2"/>
    <text x="160" y="105" text-anchor="middle" class="txt">R_in</text>
    <path d="M 190 100 L 300 100" class="wire"/>

    <!-- Feedback Resistor R_f -->
    <path d="M 230 100 L 230 40 L 320 40" class="wire"/>
    <circle cx="230" cy="100" r="4" fill="#38bdf8"/>
    <rect x="320" y="28" width="70" height="24" fill="#1e293b" stroke="#f8fafc" stroke-width="2"/>
    <text x="355" y="45" text-anchor="middle" class="txt">R_f = 100k</text>
    <path d="M 390 40 L 460 40 L 460 130" class="wire"/>

    <!-- Output -->
    <path d="M 420 130 L 520 130" class="wire"/>
    <circle cx="460" cy="130" r="4" fill="#38bdf8"/>
    <circle cx="525" cy="130" r="4" fill="#38bdf8"/>
    <text x="535" y="135" class="txt hilite">V_out</text>

    <text x="300" y="235" text-anchor="middle" class="lbl" fill="#94a3b8">Hình 1.2: Mạch khuếch đại đảo sử dụng Op-Amp lý tưởng</text>
  </svg>